<svg width="105" height="63" viewBox="0 0 105 63" fill="none" xmlns="http://www.w3.org/2000/svg">
<g clip-path="url(#clip0_3_39)">
<path d="M71.9727 15.2727V0.572723H64.1454V15.2727C64.1454 22.7182 67.7727 26.1545 75.2182 26.1545H87.0545V0.572723H79.2273V19.2818H75.7909C73.3091 19.2818 71.9727 18.5182 71.9727 15.2727Z" fill="#0078DC"/>
<path d="M42.9546 39.5182V54.2182H50.7818V39.5182C50.7818 32.0727 47.1546 28.6364 39.7091 28.6364H27.8727V54.2182H35.7V35.5091H39.1364C41.6182 35.5091 42.9546 36.4636 42.9546 39.5182Z" fill="#0078DC"/>
<path d="M53.4546 9.73636H46.0091V0.572723H38.1818V26.1545H46.2V16.4182H53.4546V26.1545H61.4727V0.572723H53.4546V9.73636Z" fill="#0078DC"/>
<path d="M92.2091 28.0637C83.4273 28.0637 79.4182 33.7909 79.4182 41.4273C79.4182 49.2546 83.4273 54.7909 92.2091 54.7909C100.991 54.7909 105 49.0637 105 41.4273C105 33.7909 100.991 28.0637 92.2091 28.0637ZM92.2091 48.4909C88.5819 48.4909 87.4364 45.6273 87.4364 41.6182C87.4364 37.6091 88.7728 34.7455 92.2091 34.7455C95.8364 34.7455 96.9819 37.6091 96.9819 41.6182C96.9819 45.4364 95.8364 48.4909 92.2091 48.4909Z" fill="#0078DC"/>
<path d="M23.2909 0C16.0364 0 12.2182 4.00909 11.2636 9.73636H8.01818V0.572727H0V26.3455H8.01818V16.4182H11.2636C12.2182 22.5273 16.0364 26.7273 23.4818 26.7273C32.2636 26.7273 36.2727 21 36.2727 13.3636C36.0818 5.72727 32.0727 0 23.2909 0ZM23.2909 20.4273C19.6636 20.4273 18.5182 17.5636 18.5182 13.5545C18.5182 9.54545 19.6636 6.68182 23.2909 6.68182C26.9182 6.68182 28.0636 9.54545 28.0636 13.5545C28.0636 17.3727 26.9182 20.2364 23.2909 20.4273Z" fill="#0078DC"/>
<path d="M61.4727 54.4091H64.5273C73.1182 54.4091 77.8909 50.2091 77.8909 41.6182C77.8909 33.0273 73.1182 28.8273 64.5273 28.8273H53.4545V63.1909H61.2818V54.4091H61.4727ZM61.4727 47.3455V35.5091H64.1454C67.7727 35.5091 69.8727 36.8455 69.8727 41.4273C69.8727 45.8182 67.7727 47.3455 64.1454 47.3455H61.4727Z" fill="#0078DC"/>
</g>
<defs>
<clipPath id="clip0_3_39">
<rect width="105" height="63" fill="white"/>
</clipPath>
</defs>
</svg>
