<svg width="105" height="63" fill="none" xmlns="http://www.w3.org/2000/svg"><g clip-path="url(#clip0_3_39)" fill="#0078DC"><path d="M71.973 15.273V.573h-7.828v14.7c0 7.445 3.628 10.881 11.073 10.881h11.837V.573h-7.828v18.709h-3.436c-2.482 0-3.818-.764-3.818-4.01zM42.955 39.518v14.7h7.827v-14.7c0-7.445-3.627-10.882-11.073-10.882H27.873v25.582H35.7V35.51h3.436c2.482 0 3.819.955 3.819 4.01zm10.5-29.782h-7.446V.573h-7.827v25.581H46.2v-9.736h7.255v9.736h8.018V.573h-8.018v9.163zM92.21 28.064c-8.783 0-12.792 5.727-12.792 13.363 0 7.828 4.01 13.364 12.791 13.364 8.782 0 12.791-5.727 12.791-13.364 0-7.636-4.009-13.363-12.79-13.363zm0 20.427c-3.628 0-4.774-2.864-4.774-6.873s1.337-6.873 4.773-6.873c3.627 0 4.773 2.864 4.773 6.873 0 3.818-1.146 6.873-4.773 6.873zM23.29 0c-7.254 0-11.072 4.01-12.026 9.736H8.018V.573H0v25.773h8.018v-9.928h3.246c.954 6.11 4.772 10.31 12.218 10.31 8.782 0 12.79-5.728 12.79-13.364C36.083 5.727 32.073 0 23.292 0zm0 20.427c-3.626 0-4.772-2.863-4.772-6.872 0-4.01 1.146-6.873 4.773-6.873s4.773 2.863 4.773 6.873c0 3.818-1.146 6.681-4.773 6.872zM61.473 54.41h3.054c8.591 0 13.364-4.2 13.364-12.792 0-8.59-4.773-12.79-13.364-12.79H53.455V63.19h7.827v-8.782h.19zm0-7.064V35.508h2.672c3.628 0 5.728 1.337 5.728 5.918 0 4.391-2.1 5.919-5.728 5.919h-2.672z"/></g><defs><clipPath id="clip0_3_39"><path fill="#fff" d="M0 0h105v63H0z"/></clipPath></defs></svg>